<svg xmlns="http://www.w3.org/2000/svg" xmlns:xlink="http://www.w3.org/1999/xlink" xmlns:lucid="lucid" width="1480" height="589"><g transform="translate(-120 -120)" lucid:page-tab-id="0_0"><path d="M0 0h1760v1360H0z" fill="#fff"/><path d="M316.8 434.08v-83.16c0-4.08-3.67-10.92-8.3-10.92h-144c-4.62 0-9.06 6.84-9.06 10.92v83.16c-16.2 17.28-15.44 17.28-15.44 17.28 0 4.92 4.44 8.64 10.23 8.64h172.55c5.8 0 10.23-4.08 10.23-8.64l-16.2-17.28zM249.8 452.8h-30.1c-1.55 0-3.1-.72-3.1-1.44l3.48-5.64c0-.72 1.16-1.2 2.7-1.2h23.93c1.16 0 2.32.48 2.32 1.2l3.86 5.64c0 1.08-1.53 1.44-3.08 1.44zm59.83-19.2H162.58v-81.96c0-1.92 1.93-4.56 4.06-4.56H306c2.1 0 3.65 2.64 3.65 4.56v81.96z" stroke="#000" stroke-opacity="0" fill="#282c33"/><use xlink:href="#a" transform="matrix(1,0,0,1,110,469) translate(84.54629629629629 26.66666666666667)"/><path d="M318.8 399.64h178.76" stroke="#1071e5" stroke-width="4" fill="none"/><path d="M318.85 401.64h-2.06v-4h2.05z" stroke="#1071e5" stroke-width=".05" fill="#1071e5"/><path d="M513.83 399.64l-14.27 4.64V395z" stroke="#1071e5" stroke-width="4" fill="#1071e5"/><path d="M963.32 166.07l-10.02 2.9v82.05l10.02 2.9 40.6-41.82-40.6-46.03z" fill="#9d5025"/><path d="M986.68 250.76l-23.36 3.16v-87.85l23.36 3.07v81.62z" fill="#f58536"/><path d="M974.38 162.84l12.32-3.55 58.52 54.34-58.52 47.04-12.32-3.55v-94.3z" fill="#9d5025"/><path d="M1015.84 255.9l-29.14 4.78v-101.4l29.14 4.78v91.85z" fill="#f58536"/><path d="M1000.42 155.32l15.46-4.5 86.3 68.75-86.3 49.58-15.46-4.5V155.32z" fill="#9d5025"/><path d="M1053.26 261.22l-37.4 7.93V150.82l37.4 7.93v102.47z" fill="#f58536"/><path d="M1033.32 145.74l19.94-5.74 93.4 73.92-93.4 66.08-19.94-5.74V145.74z" fill="#9d5025"/><path d="M1153.28 251.02L1053.26 280V140l100.02 28.98v82.04z" fill="#f58536"/><use xlink:href="#b" transform="matrix(1,0,0,1,953.2957877164772,280) translate(1.9444444444444429 26.66666666666667)"/><use xlink:href="#c" transform="matrix(1,0,0,1,953.2957877164772,280) translate(133.33333333333331 26.66666666666667)"/><path d="M963.32 344.73l-10.02 2.9v82.06l10.02 2.88 40.6-41.8-40.6-46.05z" fill="#9d5025"/><path d="M986.68 429.42l-23.36 3.16v-87.85l23.36 3.08v81.62z" fill="#f58536"/><path d="M974.38 341.5l12.32-3.54 58.52 54.34-58.52 47.05-12.32-3.55v-94.3z" fill="#9d5025"/><path d="M1015.84 434.58l-29.14 4.77v-101.4l29.14 4.77v91.86z" fill="#f58536"/><path d="M1000.42 334l15.46-4.5 86.3 68.74-86.3 49.58-15.46-4.5V334z" fill="#9d5025"/><path d="M1053.26 439.9l-37.4 7.92V329.5l37.4 7.92V439.9z" fill="#f58536"/><path d="M1033.32 324.4l19.94-5.73 93.4 73.92-93.4 66.07-19.94-5.74V324.4z" fill="#9d5025"/><path d="M1153.28 429.7l-100.02 28.97v-140l100.02 28.98v82.04z" fill="#f58536"/><use xlink:href="#b" transform="matrix(1,0,0,1,953.2957877164772,458.6666666666667) translate(1.9444444444444429 26.66666666666667)"/><use xlink:href="#c" transform="matrix(1,0,0,1,953.2957877164772,458.6666666666667) translate(133.33333333333331 26.66666666666667)"/><path d="M963.32 546.07l-10.02 2.9v82.05l10.02 2.9 40.6-41.82-40.6-46.03z" fill="#9d5025"/><path d="M986.68 630.76l-23.36 3.16v-87.85l23.36 3.07v81.62z" fill="#f58536"/><path d="M974.38 542.84l12.32-3.55 58.52 54.34-58.52 47.04-12.32-3.55v-94.3z" fill="#9d5025"/><path d="M1015.84 635.9l-29.14 4.78v-101.4l29.14 4.78v91.85z" fill="#f58536"/><path d="M1000.42 535.32l15.46-4.5 86.3 68.75-86.3 49.58-15.46-4.5V535.32z" fill="#9d5025"/><path d="M1053.26 641.22l-37.4 7.93V530.82l37.4 7.93v102.47z" fill="#f58536"/><path d="M1033.32 525.74l19.94-5.74 93.4 73.92-93.4 66.08-19.94-5.74V525.74z" fill="#9d5025"/><path d="M1153.28 631.02L1053.26 660V520l100.02 28.98v82.04z" fill="#f58536"/><use xlink:href="#b" transform="matrix(1,0,0,1,953.2957877164772,660) translate(1.9444444444444429 26.66666666666667)"/><use xlink:href="#c" transform="matrix(1,0,0,1,953.2957877164772,660) translate(133.33333333333331 26.66666666666667)"/><path d="M713 393.37c0 45.42-43.23 82.28-96.5 82.28S520 438.8 520 393.37s43.23-82.3 96.5-82.3 96.5 36.88 96.5 82.3z" fill="#9d5025"/><path d="M713 386.62c0 45.42-43.23 82.28-96.5 82.28S520 432.04 520 386.62s43.23-82.3 96.5-82.3 96.5 36.88 96.5 82.3z" fill="#f58536"/><path d="M535.36 362.6h35.03v48.03h-35.04V362.6zM647.35 329.8h31.26v26.65h-31.25V329.8zM647.35 373.28h31.26v26.66h-31.25v-26.66zM647.35 416.8h31.26v26.66h-31.25V416.8z" fill="#fff"/><path d="M638.7 390.1l5.22-2.12 3.43-1.45-3.43-1.45-4.62-1.95-13.96-5.87v5.87h-41.86l47.6-26.03 3.77 5.02 7.87-11.4 2.3-3.32 2.33-3.32-4.46.43-5.06.52-14.9 1.53 3.6 4.68-58.4 31.9-6.4 3.5 7.7 4.15 57.1 31.22-3.6 4.68 14.9 1.53 5.05.52 4.45.43-2.32-3.32-2.3-3.32-7.88-11.38-3.77 5-47.6-26.02h41.86v5.7l13.36-5.7z" fill="#fff"/><use xlink:href="#d" transform="matrix(1,0,0,1,520,475.66666666666674) translate(59.96296296296296 26.66666666666667)"/><use xlink:href="#e" transform="matrix(1,0,0,1,520,475.66666666666674) translate(31.351851851851848 66.66666666666669)"/><path d="M714.95 395.62h215.6" stroke="#1071e5" stroke-width="4" fill="none"/><path d="M715 397.62h-2.13l.04-.56.1-3.44h2z" stroke="#1071e5" stroke-width=".05" fill="#1071e5"/><path d="M946.82 395.62l-14.26 4.64v-9.28z" stroke="#1071e5" stroke-width="4" fill="#1071e5"/><path d="M714.95 395.62h112.17c3.32 0 6 2.7 6 6V594c0 3.3 2.7 6 6 6h91.44" stroke="#1071e5" stroke-width="4" fill="none"/><path d="M715 397.62h-2.13l.04-.56.1-3.44h2z" stroke="#1071e5" stroke-width=".05" fill="#1071e5"/><path d="M946.82 600l-14.26 4.64v-9.28z" stroke="#1071e5" stroke-width="4" fill="#1071e5"/><path d="M714.95 395.62h112.17c3.32 0 6-2.7 6-6V226c0-3.3 2.7-6 6-6h91.44" stroke="#1071e5" stroke-width="4" fill="none"/><path d="M715 397.62h-2.13l.04-.56.1-3.44h2z" stroke="#1071e5" stroke-width=".05" fill="#1071e5"/><path d="M946.82 220l-14.26 4.64v-9.28z" stroke="#1071e5" stroke-width="4" fill="#1071e5"/><path d="M496.5 250.33c0-3.3 2.7-6 6-6h228c3.32 0 6 2.7 6 6v48c0 3.32-2.68 6-6 6h-228c-3.3 0-6-2.68-6-6z" stroke="#000" stroke-opacity="0" stroke-width="3" fill="#fff" fill-opacity="0"/><use xlink:href="#f" transform="matrix(1,0,0,1,501.50370742742234,249.33333333333337) translate(62.31481481481481 32.91666666666667)"/><path d="M1380 293.85v190.2c0 20.12 44.78 35.95 99.73 35.95V293.85z" stroke="#000" stroke-opacity="0" stroke-width="1.32" fill="#3998c5"/><path d="M1478.67 520h1.62c55.4 0 99.7-15.83 99.7-35.96v-190.2h-101.33z" stroke="#000" stroke-opacity="0" stroke-width="1.32" fill="#59b3d8"/><path d="M1580 293.85c0 19.5-44.8 35.84-99.8 35.84-54.8 0-100.2-16.35-100.2-35.85s44.8-35.85 99.8-35.85c54.8 0 100.2 16.35 100.2 35.85" stroke="#000" stroke-opacity="0" stroke-width="1.32" fill="#fff"/><path d="M1559.7 291.74c0 13.18-35.7 23.72-79.4 23.72-43.84 0-80.03-10.54-80.03-23.72 0-13.2 35.7-23.73 79.4-23.73 43.85 0 80.04 10.55 80.04 23.74" stroke="#000" stroke-opacity="0" stroke-width="1.32" fill="#7fb900"/><path d="M1542.67 305.97c10.65-4.18 16.53-8.96 16.53-14.24 0-13.17-35.76-23.72-79.47-23.72-43.7 0-79.46 10.56-79.46 23.73 0 5.28 6.35 10.56 16.53 14.24 14.46-5.8 37.34-8.96 62.93-8.96 22.4-.45 41.48 2.25 62.94 8.97" stroke="#000" stroke-opacity="0" stroke-width="1.32" fill="#b7d332"/><path d="M1536.25 435.22c-15.93 3.18-17.05-2.16-17.05-2.16 16.8-24.57 23.77-55.75 17.8-63.4-16.56-20.74-45.06-10.94-45.56-10.68h-.12c-3.73-.64-6.85-1.02-10.58-1.02-6.35-.38-11.7 1.27-16.8 4.96 0 0-50.9-20.75-48.54 25.97.5 10.04 14.44 75.47 31 55.6 6.1-7.1 11.94-13.22 11.94-13.22 3.1 2.03 6.35 2.8 10.08 2.54l.37-.25c-.13 1.02-.13 1.78 0 2.8-4.24 4.7-3 5.6-11.58 7.25-8.6 1.8-3.5 4.97-.25 5.73 7.47 2.42 15.06 0 19.66-6.24l-.25 1.03c2.5 4.97 3.24 9.8 2.62 15.28-.5 5.23-.25 9.68 1 14.77 1.36 3.44 2.73 11.46 13.93 9.17 8.34-.9 14.7-7.5 14.94-15.8.5-6.1 1.62-5.2 1.62-10.68l.86-2.67c1-8.3.25-10.96 5.97-9.7l1.37.14c4.73.13 8.84-.5 13.2-2.16 7.1-3.3 11.2-8.66 4.23-7.26z" stroke="#000" stroke-opacity="0" stroke-width="1.32" fill="#336790"/><path d="M1469.2 394.13c-.75-.38-1.46-.6-2.3-.7-1.2-.26-2.3-.1-3.38.47-.3.2-.47.47-.53.8-.16 1.06 1.42 3.03 3.4 3.3.15.02.3.03.47.03 1.48 0 2.73-.8 3.36-2.13l.05-.18c.07-.34 0-1-1.08-1.6zM1513.06 392.5c-.8-.16-1.48-.17-2.28-.05-1.65.24-3.24.97-3.1 1.93l.02.1c.56 1.2 1.7 1.94 3.06 1.94.15 0 .28 0 .44-.02.9-.17 1.63-.56 2.26-1.23.5-.46.8-1.02.85-1.7-.07-.45-.52-.8-1.24-.97z" stroke="#000" stroke-opacity="0" stroke-width="1.32" fill="#fff"/><path d="M1540.98 435.02c-.76-2.35-4.07-1.7-5.22-1.44-11.08 2.35-14.27 0-14.9-.52 8.28-12.54 13.5-24.16 17.32-38.52 3.06-12.27 2.93-21.94-.13-25.85-7.13-8.9-16.8-13.72-28.15-13.85-6.75-.26-12.36.52-18.73 2.48l-.26.13h-.1l-.27.13c-3.44-.93-6.37-1.32-9.93-1.32-6.25-.26-11.6 1.3-16.82 4.7-5.48-1.96-10.32-3.26-16.05-4.04-8.54-1.57-16.44-.14-23.83 4.3-7.4 5.23-10.83 14.5-10.06 27.55.25 6.26 9.42 55.62 23.82 60.32 3.82 1.04 7.77-.52 9.8-3.8 5.1-6.13 9.95-11.1 11.1-12.4 2.67 1.44 5.35 2.1 8.4 2.23v.78c-.5.65-1.02 1.3-1.4 1.83-2.04 2.48-2.42 3-8.66 4.3-2.55.53-5.86 1.44-6 3.92 0 2.48 3.45 4.05 5.62 4.57 7 2.22 14.14.53 19.23-4.57-.5 10.32 0 19.07 1.92 29.38 1.65 6 6.87 10.06 13.24 10.06 1.54 0 2.95-.13 4.47-.53 8.4-.66 14.9-7.2 15.42-15.54.88-5.23 2.54-17.9 3.17-24.3 2.04.66 3.83.92 6 .8 4.45.12 8.27-.66 12.48-2.23 3.95-1.95 9.55-5.74 8.53-8.6zm-29.55 6.8c-.4 3.5-2.42 20.88-3.57 27-.26 7.2-5.86 12.8-13.12 13.2-5.86 1.96-12.23-1.04-14.14-6.92-.13-.26-.13-.52-.26-.9-1.9-11.9-2.3-22.08-1.53-34.22 0-.13 0-.4-.12-.66-.12-.4-.12-.78-.25-1.3-.64-1.83-1.78-3.27-3.7-4.18l-.12-.13c-1.4-.77-3.05-.9-4.58-.25.5-2.22 1.02-3.92 1.9-6l.27-.8 1.13-2.73c2.42-5.23 5.6-12.15 2.17-28.07-.13-.27-.13-.4-.13-.66-1.27-5.23-6.5-8.5-11.72-7.2-4.2.53-7.64 1.7-11.2 3.93.24-9.93 3.43-18.28 9.8-26 5.1-4.82 11.2-7.17 18.35-6.77 10.82 0 20.12 4.04 27.5 11.88 4.73 4.96 7.9 9.92 10.08 16.45-7.52-.93-12.6.38-15.16 3.9-5.23 7.58 3.06 22.46 7.13 29.65.77 1.17 1.4 2.48 1.66 3 1.16 2.6 2.43 4.57 4.34 6.8.5.64.9 1.16 1.4 1.95h-.38c-2.17.65-6.12 1.7-5.73 9zm-72.88 4.56c-4.7-1.57-10.06-11.1-15.03-26.9-3.44-10.58-5.48-19.72-6.75-30.82-.64-12 2.3-20.5 8.8-25.07 4.83-3 9.8-4.3 15.4-4.05 7.27.13 13.38 1.17 20.13 3.52-.25.26-.63.52-.9.92-11.2 11.08-10.82 30.28-10.82 31.06v.13c.5 6.26.38 11.74-.25 18-1.02 6.15.76 11.9 5.22 16.46.64.66 1.15 1.05 1.78 1.57-1.78 1.96-6.24 6.66-10.95 12.27-2.3 2.6-4.46 3.66-6.63 2.88zm13.38-32.9c.76-6.28.9-11.76.38-18.03 4.47-3.4 9.3-4.96 14.92-4.57 2.93.4 5.1 2.6 5.35 5.5 3.3 15 .5 21.27-1.9 26.36-.4.92-.9 1.96-1.16 2.88l-.37.78c-.77 1.96-1.4 3.78-1.9 5.87-4.22 0-7.9-1.56-10.84-4.57-3.7-3.9-5.23-8.87-4.47-14.23zm17.84 23.63c.12 0 .12-.13.25-.13.64-1.04 2.04-1.43 3.2-.78l.24.12c2.04 1.05 2.93 3.66 1.9 5.75-4.2 5.74-11.33 7.96-18.08 5.74-1.27-.25-2.42-.77-3.44-1.55 1.15-.8 2.3-1.18 3.57-1.3 7.02-1.45 8.03-2.36 10.33-5.36.63-.67 1.27-1.45 2.16-2.5zm44.7-14.23c-.24-.65-.88-1.7-1.64-3.26h-.13c-3.44-6.13-11.6-20.5-7.26-26.5 2.16-2.48 5.22-3.52 8.4-3 1.66 0 2.94 0 4.6.26 0 2.1-.26 3.92-.52 6-.5 2.23-.63 4.2-.76 6.4 0 2.62.13 4.7.5 7.2 1.28 5.6.77 10.7-1.65 15.92-.62-1.05-1-1.83-1.52-3zm20.02-26.1c-3.84 12.4-8.42 22.32-15.3 33.4-.26-.38-.5-.77-.9-1.16l-.25-.5h-.13c3.32-6.02 4.2-12.3 2.68-18.95-.38-2.35-.5-4.3-.5-6.65.12-2.22.24-3.92.63-6.14.5-2.48.63-4.7.63-7.3 0-.4.13-.67 0-.93-3.82-13.7-12.74-23.9-26-29.37 23.84-5.75 36.07 5.87 40.27 11.22 3.2 4.05 2.8 13.45-1.14 26.38zm-16.45 38.77c.38 0 .64-.13 1.02-.26.26.13.5.4.77.52 5.47 2.22 10.95 2.48 16.56.65.5-.13 1.02-.26 1.53-.26-1.9 2.08-3.95 3.65-6.76 4.7-5.47 2.34-10.7 2.73-16.43 1.17-.38-.13-.38-.26-.38-.26-.4-5.1 1.65-5.6 3.7-6.26z" stroke="#000" stroke-opacity="0" stroke-width="1.32" fill="#fff"/><use xlink:href="#g" transform="matrix(1,0,0,1,1350,529) translate(39.90740740740739 26.66666666666667)"/><use xlink:href="#h" transform="matrix(1,0,0,1,1350,529) translate(58.75 66.66666666666669)"/><path d="M1155.28 394.38h201.98" stroke="#1071e5" stroke-width="4" fill="none"/><path d="M1155.33 396.38h-2.05v-4h2.05z" stroke="#1071e5" stroke-width=".05" fill="#1071e5"/><path d="M1373.53 394.38l-14.27 4.64v-9.28z" stroke="#1071e5" stroke-width="4" fill="#1071e5"/><path d="M1155.28 595.7h105.36c3.3 0 6-2.67 6-6v-148c0-3.32 2.68-6 6-6h84.62" stroke="#1071e5" stroke-width="4" fill="none"/><path d="M1155.33 597.7h-2.05v-4h2.05z" stroke="#1071e5" stroke-width=".05" fill="#1071e5"/><path d="M1373.53 435.7l-14.27 4.63v-9.27z" stroke="#1071e5" stroke-width="4" fill="#1071e5"/><path d="M1155.28 215.7h105.36c3.3 0 6 2.7 6 6v125.63c0 3.32 2.68 6 6 6h84.62" stroke="#1071e5" stroke-width="4" fill="none"/><path d="M1155.33 217.7h-2.05v-4h2.05z" stroke="#1071e5" stroke-width=".05" fill="#1071e5"/><path d="M1373.53 353.33l-14.27 4.64v-9.27z" stroke="#1071e5" stroke-width="4" fill="#1071e5"/><path d="M1378 336h-52c-3.3 0-6-2.7-6-6V202c0-3.3-2.7-6-6-6h-138" stroke="#008a0e" stroke-width="4" fill="none"/><path d="M1380 338h-2.05v-4h2.05z" stroke="#008a0e" stroke-width=".05" fill="#008a0e"/><path d="M1159.75 196l14.26-4.64v9.28z" stroke="#008a0e" stroke-width="4" fill="#008a0e"/><path d="M1378 457.33h-62c-3.3 0-6 2.7-6 6v148.02c0 3.32-2.7 6-6 6h-128" stroke="#008a0e" stroke-width="4" fill="none"/><path d="M1380 459.33h-2.05v-4h2.05z" stroke="#008a0e" stroke-width=".05" fill="#008a0e"/><path d="M1159.75 617.35l14.26-4.63V622z" stroke="#008a0e" stroke-width="4" fill="#008a0e"/><path d="M1378 410.67h-202" stroke="#008a0e" stroke-width="4" fill="none"/><path d="M1380 412.67h-2.05v-4h2.05z" stroke="#008a0e" stroke-width=".05" fill="#008a0e"/><path d="M1159.75 410.67l14.26-4.64v9.27z" stroke="#008a0e" stroke-width="4" fill="#008a0e"/><path d="M951.3 194.67H786c-3.3 0-6 2.68-6 6v168.38c0 3.32-2.7 6-6 6h-39.2" stroke="#008a0e" stroke-width="4" fill="none"/><path d="M953.3 196.67h-2.06v-4h2.06z" stroke="#008a0e" stroke-width=".05" fill="#008a0e"/><path d="M718.52 375.05l14.27-4.63v9.27z" stroke="#008a0e" stroke-width="4" fill="#008a0e"/><path d="M951.3 414.67H732.47" stroke="#008a0e" stroke-width="4" fill="none"/><path d="M953.3 416.67h-2.06v-4h2.06z" stroke="#008a0e" stroke-width=".05" fill="#008a0e"/><path d="M716.2 414.67l14.27-4.64v9.27z" stroke="#008a0e" stroke-width="4" fill="#008a0e"/><path d="M951.3 621.33H786c-3.3 0-6-2.68-6-6v-170.2c0-3.3-2.7-6-6-6h-54.6" stroke="#008a0e" stroke-width="4" fill="none"/><path d="M953.3 623.33h-2.06v-4h2.06z" stroke="#008a0e" stroke-width=".05" fill="#008a0e"/><path d="M703.15 439.14l14.26-4.63v9.28z" stroke="#008a0e" stroke-width="4" fill="#008a0e"/><path d="M523.1 419.82H339.53" stroke="#008a0e" stroke-width="4" fill="none"/><path d="M525.1 419.82l.86 2h-2.9v-4h1.3z" stroke="#008a0e" stroke-width=".05" fill="#008a0e"/><path d="M323.27 419.82l14.26-4.63v9.26z" stroke="#008a0e" stroke-width="4" fill="#008a0e"/><defs><path d="M212-179c-10-28-35-45-73-45-59 0-87 40-87 99 0 60 29 101 89 101 43 0 62-24 78-52l27 14C228-24 195 4 139 4 59 4 22-46 18-125c-6-104 99-153 187-111 19 9 31 26 39 46" id="i"/><path d="M24 0v-261h32V0H24" id="j"/><path d="M24-231v-30h32v30H24zM24 0v-190h32V0H24" id="k"/><path d="M100-194c63 0 86 42 84 106H49c0 40 14 67 53 68 26 1 43-12 49-29l28 8c-11 28-37 45-77 45C44 4 14-33 15-96c1-61 26-98 85-98zm52 81c6-60-76-77-97-28-3 7-6 17-6 28h103" id="l"/><path d="M117-194c89-4 53 116 60 194h-32v-121c0-31-8-49-39-48C34-167 62-67 57 0H25l-1-190h30c1 10-1 24 2 32 11-22 29-35 61-36" id="m"/><path d="M59-47c-2 24 18 29 38 22v24C64 9 27 4 27-40v-127H5v-23h24l9-43h21v43h35v23H59v120" id="n"/><g id="a"><use transform="matrix(0.0925925925925926,0,0,0.0925925925925926,0,0)" xlink:href="#i"/><use transform="matrix(0.0925925925925926,0,0,0.0925925925925926,23.981481481481485,0)" xlink:href="#j"/><use transform="matrix(0.0925925925925926,0,0,0.0925925925925926,31.296296296296298,0)" xlink:href="#k"/><use transform="matrix(0.0925925925925926,0,0,0.0925925925925926,38.611111111111114,0)" xlink:href="#l"/><use transform="matrix(0.0925925925925926,0,0,0.0925925925925926,57.12962962962963,0)" xlink:href="#m"/><use transform="matrix(0.0925925925925926,0,0,0.0925925925925926,75.64814814814815,0)" xlink:href="#n"/></g><path fill="#333" d="M205 0l-28-72H64L36 0H1l101-248h38L239 0h-34zm-38-99l-47-123c-12 45-31 82-46 123h93" id="o"/><path fill="#333" d="M210-169c-67 3-38 105-44 169h-31v-121c0-29-5-50-35-48C34-165 62-65 56 0H25l-1-190h30c1 10-1 24 2 32 10-44 99-50 107 0 11-21 27-35 58-36 85-2 47 119 55 194h-31v-121c0-29-5-49-35-48" id="p"/><path fill="#333" d="M141-36C126-15 110 5 73 4 37 3 15-17 15-53c-1-64 63-63 125-63 3-35-9-54-41-54-24 1-41 7-42 31l-33-3c5-37 33-52 76-52 45 0 72 20 72 64v82c-1 20 7 32 28 27v20c-31 9-61-2-59-35zM48-53c0 20 12 33 32 33 41-3 63-29 60-74-43 2-92-5-92 41" id="q"/><path fill="#333" d="M9 0v-24l116-142H16v-24h144v24L44-24h123V0H9" id="r"/><path fill="#333" d="M100-194c62-1 85 37 85 99 1 63-27 99-86 99S16-35 15-95c0-66 28-99 85-99zM99-20c44 1 53-31 53-75 0-43-8-75-51-75s-53 32-53 75 10 74 51 75" id="s"/><path fill="#333" d="M117-194c89-4 53 116 60 194h-32v-121c0-31-8-49-39-48C34-167 62-67 57 0H25l-1-190h30c1 10-1 24 2 32 11-22 29-35 61-36" id="t"/><g id="b"><use transform="matrix(0.0925925925925926,0,0,0.0925925925925926,0,0)" xlink:href="#o"/><use transform="matrix(0.0925925925925926,0,0,0.0925925925925926,22.222222222222225,0)" xlink:href="#p"/><use transform="matrix(0.0925925925925926,0,0,0.0925925925925926,49.90740740740741,0)" xlink:href="#q"/><use transform="matrix(0.0925925925925926,0,0,0.0925925925925926,68.42592592592592,0)" xlink:href="#r"/><use transform="matrix(0.0925925925925926,0,0,0.0925925925925926,85.0925925925926,0)" xlink:href="#s"/><use transform="matrix(0.0925925925925926,0,0,0.0925925925925926,103.61111111111111,0)" xlink:href="#t"/></g><path fill="#333" d="M30 0v-248h187v28H63v79h144v27H63v87h162V0H30" id="u"/><path fill="#333" d="M212-179c-10-28-35-45-73-45-59 0-87 40-87 99 0 60 29 101 89 101 43 0 62-24 78-52l27 14C228-24 195 4 139 4 59 4 22-46 18-125c-6-104 99-153 187-111 19 9 31 26 39 46" id="v"/><path fill="#333" d="M101-251c82-7 93 87 43 132L82-64C71-53 59-42 53-27h129V0H18c2-99 128-94 128-182 0-28-16-43-45-43s-46 15-49 41l-32-3c6-41 34-60 81-64" id="w"/><g id="c"><use transform="matrix(0.0925925925925926,0,0,0.0925925925925926,0,0)" xlink:href="#u"/><use transform="matrix(0.0925925925925926,0,0,0.0925925925925926,22.222222222222225,0)" xlink:href="#v"/><use transform="matrix(0.0925925925925926,0,0,0.0925925925925926,46.20370370370371,0)" xlink:href="#w"/></g><path fill="#333" d="M30 0v-248h33v221h125V0H30" id="x"/><path fill="#333" d="M85-194c31 0 48 13 60 33l-1-100h32l1 261h-30c-2-10 0-23-3-31C134-8 116 4 85 4 32 4 16-35 15-94c0-66 23-100 70-100zm9 24c-40 0-46 34-46 75 0 40 6 74 45 74 42 0 51-32 51-76 0-42-9-74-50-73" id="y"/><g id="d"><use transform="matrix(0.0925925925925926,0,0,0.0925925925925926,0,0)" xlink:href="#x"/><use transform="matrix(0.0925925925925926,0,0,0.0925925925925926,18.51851851851852,0)" xlink:href="#s"/><use transform="matrix(0.0925925925925926,0,0,0.0925925925925926,37.03703703703704,0)" xlink:href="#q"/><use transform="matrix(0.0925925925925926,0,0,0.0925925925925926,55.555555555555564,0)" xlink:href="#y"/></g><path fill="#333" d="M160-131c35 5 61 23 61 61C221 17 115-2 30 0v-248c76 3 177-17 177 60 0 33-19 50-47 57zm-97-11c50-1 110 9 110-42 0-47-63-36-110-37v79zm0 115c55-2 124 14 124-45 0-56-70-42-124-44v89" id="z"/><path fill="#333" d="M24 0v-261h32V0H24" id="A"/><path fill="#333" d="M96-169c-40 0-48 33-48 73s9 75 48 75c24 0 41-14 43-38l32 2c-6 37-31 61-74 61-59 0-76-41-82-99-10-93 101-131 147-64 4 7 5 14 7 22l-32 3c-4-21-16-35-41-35" id="B"/><path fill="#333" d="M100-194c63 0 86 42 84 106H49c0 40 14 67 53 68 26 1 43-12 49-29l28 8c-11 28-37 45-77 45C44 4 14-33 15-96c1-61 26-98 85-98zm52 81c6-60-76-77-97-28-3 7-6 17-6 28h103" id="C"/><path fill="#333" d="M114-163C36-179 61-72 57 0H25l-1-190h30c1 12-1 29 2 39 6-27 23-49 58-41v29" id="D"/><g id="e"><use transform="matrix(0.0925925925925926,0,0,0.0925925925925926,0,0)" xlink:href="#z"/><use transform="matrix(0.0925925925925926,0,0,0.0925925925925926,22.222222222222225,0)" xlink:href="#q"/><use transform="matrix(0.0925925925925926,0,0,0.0925925925925926,40.74074074074075,0)" xlink:href="#A"/><use transform="matrix(0.0925925925925926,0,0,0.0925925925925926,48.05555555555556,0)" xlink:href="#q"/><use transform="matrix(0.0925925925925926,0,0,0.0925925925925926,66.57407407407408,0)" xlink:href="#t"/><use transform="matrix(0.0925925925925926,0,0,0.0925925925925926,85.0925925925926,0)" xlink:href="#B"/><use transform="matrix(0.0925925925925926,0,0,0.0925925925925926,101.75925925925927,0)" xlink:href="#C"/><use transform="matrix(0.0925925925925926,0,0,0.0925925925925926,120.27777777777779,0)" xlink:href="#D"/></g><path fill="#333" d="M190 0L58-211 59 0H30v-248h39L202-35l-2-213h31V0h-41" id="E"/><path fill="#333" d="M143 4C61 4 22-44 18-125c-5-107 100-154 193-111 17 8 29 25 37 43l-32 9c-13-25-37-40-76-40-61 0-88 39-88 99 0 61 29 100 91 101 35 0 62-11 79-27v-45h-74v-28h105v86C228-13 192 4 143 4" id="F"/><path fill="#333" d="M33 0v-248h34V0H33" id="G"/><path fill="#333" d="M195 0l-74-108L45 0H8l94-129-87-119h37l69 98 67-98h37l-84 118L233 0h-38" id="H"/><g id="f"><use transform="matrix(0.0925925925925926,0,0,0.0925925925925926,0,0)" xlink:href="#E"/><use transform="matrix(0.0925925925925926,0,0,0.0925925925925926,23.981481481481485,0)" xlink:href="#F"/><use transform="matrix(0.0925925925925926,0,0,0.0925925925925926,49.90740740740741,0)" xlink:href="#G"/><use transform="matrix(0.0925925925925926,0,0,0.0925925925925926,59.16666666666667,0)" xlink:href="#E"/><use transform="matrix(0.0925925925925926,0,0,0.0925925925925926,83.14814814814815,0)" xlink:href="#H"/></g><path d="M30-248c87 1 191-15 191 75 0 78-77 80-158 76V0H30v-248zm33 125c57 0 124 11 124-50 0-59-68-47-124-48v98" id="I"/><path d="M100-194c62-1 85 37 85 99 1 63-27 99-86 99S16-35 15-95c0-66 28-99 85-99zM99-20c44 1 53-31 53-75 0-43-8-75-51-75s-53 32-53 75 10 74 51 75" id="J"/><path d="M135-143c-3-34-86-38-87 0 15 53 115 12 119 90S17 21 10-45l28-5c4 36 97 45 98 0-10-56-113-15-118-90-4-57 82-63 122-42 12 7 21 19 24 35" id="K"/><path d="M177-190C167-65 218 103 67 71c-23-6-38-20-44-43l32-5c15 47 100 32 89-28v-30C133-14 115 1 83 1 29 1 15-40 15-95c0-56 16-97 71-98 29-1 48 16 59 35 1-10 0-23 2-32h30zM94-22c36 0 50-32 50-73 0-42-14-75-50-75-39 0-46 34-46 75s6 73 46 73" id="L"/><path d="M114-163C36-179 61-72 57 0H25l-1-190h30c1 12-1 29 2 39 6-27 23-49 58-41v29" id="M"/><path d="M185-189c-5-48-123-54-124 2 14 75 158 14 163 119 3 78-121 87-175 55-17-10-28-26-33-46l33-7c5 56 141 63 141-1 0-78-155-14-162-118-5-82 145-84 179-34 5 7 8 16 11 25" id="N"/><path d="M140-251c81 0 123 46 123 126C263-53 228-8 163 1c7 30 30 48 69 40v23c-55 16-95-15-103-61C56-3 17-48 17-125c0-80 42-126 123-126zm0 227c63 0 89-41 89-101s-29-99-89-99c-61 0-89 39-89 99S79-25 140-24" id="O"/><path d="M30 0v-248h33v221h125V0H30" id="P"/><g id="g"><use transform="matrix(0.0925925925925926,0,0,0.0925925925925926,0,0)" xlink:href="#I"/><use transform="matrix(0.0925925925925926,0,0,0.0925925925925926,22.222222222222225,0)" xlink:href="#J"/><use transform="matrix(0.0925925925925926,0,0,0.0925925925925926,40.74074074074075,0)" xlink:href="#K"/><use transform="matrix(0.0925925925925926,0,0,0.0925925925925926,57.407407407407426,0)" xlink:href="#n"/><use transform="matrix(0.0925925925925926,0,0,0.0925925925925926,66.66666666666669,0)" xlink:href="#L"/><use transform="matrix(0.0925925925925926,0,0,0.0925925925925926,85.1851851851852,0)" xlink:href="#M"/><use transform="matrix(0.0925925925925926,0,0,0.0925925925925926,96.20370370370374,0)" xlink:href="#l"/><use transform="matrix(0.0925925925925926,0,0,0.0925925925925926,114.72222222222223,0)" xlink:href="#N"/><use transform="matrix(0.0925925925925926,0,0,0.0925925925925926,136.94444444444446,0)" xlink:href="#O"/><use transform="matrix(0.0925925925925926,0,0,0.0925925925925926,162.87037037037038,0)" xlink:href="#P"/></g><path d="M30-248c118-7 216 8 213 122C240-48 200 0 122 0H30v-248zM63-27c89 8 146-16 146-99s-60-101-146-95v194" id="Q"/><path d="M141-36C126-15 110 5 73 4 37 3 15-17 15-53c-1-64 63-63 125-63 3-35-9-54-41-54-24 1-41 7-42 31l-33-3c5-37 33-52 76-52 45 0 72 20 72 64v82c-1 20 7 32 28 27v20c-31 9-61-2-59-35zM48-53c0 20 12 33 32 33 41-3 63-29 60-74-43 2-92-5-92 41" id="R"/><path d="M115-194c53 0 69 39 70 98 0 66-23 100-70 100C84 3 66-7 56-30L54 0H23l1-261h32v101c10-23 28-34 59-34zm-8 174c40 0 45-34 45-75 0-40-5-75-45-74-42 0-51 32-51 76 0 43 10 73 51 73" id="S"/><g id="h"><use transform="matrix(0.0925925925925926,0,0,0.0925925925925926,0,0)" xlink:href="#Q"/><use transform="matrix(0.0925925925925926,0,0,0.0925925925925926,23.981481481481485,0)" xlink:href="#R"/><use transform="matrix(0.0925925925925926,0,0,0.0925925925925926,42.5,0)" xlink:href="#n"/><use transform="matrix(0.0925925925925926,0,0,0.0925925925925926,51.75925925925927,0)" xlink:href="#R"/><use transform="matrix(0.0925925925925926,0,0,0.0925925925925926,70.27777777777777,0)" xlink:href="#S"/><use transform="matrix(0.0925925925925926,0,0,0.0925925925925926,88.79629629629629,0)" xlink:href="#R"/><use transform="matrix(0.0925925925925926,0,0,0.0925925925925926,107.31481481481481,0)" xlink:href="#K"/><use transform="matrix(0.0925925925925926,0,0,0.0925925925925926,123.98148148148147,0)" xlink:href="#l"/></g></defs></g></svg>